<?xml version="1.0" encoding="UTF-8" standalone="no"?>
<!-- Created with Inkscape (http://www.inkscape.org/) -->

<svg
   width="210mm"
   height="297mm"
   viewBox="0 0 210 297"
   version="1.1"
   id="svg1"
   inkscape:version="1.3.2 (091e20e, 2023-11-25)"
   sodipodi:docname="infinity_dropper_sprites.svg"
   xmlns:inkscape="http://www.inkscape.org/namespaces/inkscape"
   xmlns:sodipodi="http://sodipodi.sourceforge.net/DTD/sodipodi-0.dtd"
   xmlns="http://www.w3.org/2000/svg"
   xmlns:svg="http://www.w3.org/2000/svg">
  <sodipodi:namedview
     id="namedview1"
     pagecolor="#ffffff"
     bordercolor="#000000"
     borderopacity="0.25"
     inkscape:showpageshadow="2"
     inkscape:pageopacity="0.0"
     inkscape:pagecheckerboard="0"
     inkscape:deskcolor="#d1d1d1"
     inkscape:document-units="mm"
     inkscape:zoom="0.60626143"
     inkscape:cx="351.33358"
     inkscape:cy="593.80324"
     inkscape:window-width="1512"
     inkscape:window-height="869"
     inkscape:window-x="0"
     inkscape:window-y="38"
     inkscape:window-maximized="1"
     inkscape:current-layer="layer1" />
  <defs
     id="defs1" />
  <g
     inkscape:label="Livello 1"
     inkscape:groupmode="layer"
     id="layer1">
    <path
       id="path1"
       style="fill:#ffffff;stroke-width:0.213922"
       d="m 118.43366,105.12862 a 50,50 0 0 0 -50.000045,50.00004 50,50 0 0 0 50.000045,49.99953 50,50 0 0 0 50.00005,-49.99953 50,50 0 0 0 -50.00005,-50.00004 z m 0,12.50001 a 37.5,37.5 0 0 1 37.50004,37.50003 37.5,37.5 0 0 1 -37.50004,37.49952 37.5,37.5 0 0 1 -37.500035,-37.49952 37.5,37.5 0 0 1 37.500035,-37.50003 z"
       inkscape:export-filename="donut.png"
       inkscape:export-xdpi="65.023933"
       inkscape:export-ydpi="65.023933" />
  </g>
</svg>
